# xmcd
#
# Track frame offsets: 
#        150
#        13425
#        25263
#        37274
#        50285
#        63530
#        75991
#        88653
#        100831
#        112477
#        124468
#        135907
#        147765
#        158311
#        170980
#        183815
#
# Disc length: 2611 seconds
#
# Revision: 0
# Processed by: cddbd v1.5.2PL0 Copyright (c) Steve Scherf et al.
# Submitted via: ExactAudioCopy v0.95b4
#
DISCID=db0a3110
DTITLE=Ray Charles - Ray Charles [Signature]
DYEAR=2004
DGENRE=R&B
TTITLE0=Don't You Know
TTITLE1=The Sun's Gonna Shine Again
TTITLE2=It Should Have Been Me
TTITLE3=Heartbreaker
TTITLE4=Alone In This City
TTITLE5=Rocking Chair Blues
TTITLE6=Blues Before Sunrise
TTITLE7=Going Down Slow
TTITLE8=How Long Blues
TTITLE9=I Love You, I Love You, I Love You
TTITLE10=Here Am I, Let's Have A Ball
TTITLE11=See See Rider
TTITLE12=I Wonder Who's Kissing Her Now
TTITLE13=Can Anyone Ask For More?
TTITLE14=Don't Put All Your Dreams In One Basket
TTITLE15=Mess Around
EXTD=
EXTT0=
EXTT1=
EXTT2=
EXTT3=
EXTT4=
EXTT5=
EXTT6=
EXTT7=
EXTT8=
EXTT9=
EXTT10=
EXTT11=
EXTT12=
EXTT13=
EXTT14=
EXTT15=
PLAYORDER=
